<?xml version="1.0" encoding="UTF-8" standalone="no"?>
<svg xmlns:svg="http://www.w3.org/2000/svg" xmlns="http://www.w3.org/2000/svg" version="1.1" viewBox="0 0 700 750">
  <metadata>
    
  </metadata>
  <g font-family="Times New Roman, serif" font-size="36">
    <g>
      <title>y-axis</title>
      <path d="M 297.12661,28.542209 L 297.12661,679.22644" style="fill:none;stroke:blue;stroke-width:3;"/>
      <!-- y-axis arrowhead -->
      <path d="M 296.55078,6.3728788 L 304.37473,35.572275 L 289.06503,35.572275 L 296.55078,6.3728788 z " style="fill:blue;stroke:#000000;stroke-width:1px;stroke-linecap:butt;stroke-linejoin:miter;stroke-display:inline"/>
      <text x="240.65955" y="49.228024" fill="blue">Im</text>
    </g>

    <g>
      <title>x-axis</title>
      <path d="M 2.303307,384.40315 L 604.61809,384.40315" style="fill:none;stroke:blue;stroke-width:3;" id="path2286"/>
      <!-- x-axis arrowhead -->
      <path d="M 632.68528,385.24697 L 603.48589,393.07092 L 603.48589,377.76122 L 632.68528,385.24697 z " style="fill:blue;stroke:#000000;stroke-width:1px;stroke-linecap:butt;stroke-linejoin:miter;stroke-display:inline" id="path3180"/>
      <text x="611.49194" y="431.57697" fill="blue">Re</text>
    </g>

    <!-- unit circle -->
    <path d="M 488.30109 373.17453 A 205.85806 205.85806 0 1 1  76.584961,373.17453 A 205.85806 205.85806 0 1 1  488.30109 373.17453 z" transform="matrix(1.322907,0,0,1.322907,-76.80715,-109.5599)" style="color:#000000;fill:none;stroke:#000000;stroke-width:2;stroke-linecap:square;stroke-linejoin:miter;stroke-miterlimit:4;" id="path1409"/>

    <path d="M 297.1266,384.40315 L 390.98637,158.10323" style="fill:none;stroke:#000000;stroke-width:4;stroke-linecap:butt;stroke-linejoin:miter;stroke-miterlimit:4;" id="path2289"/>
    
    <text x="267.26489" y="420.86304">0</text>
    <text x="576.36462" y="420.10419">1</text>
    <text x="268.29922" y="101.05243" font-style="italic">i</text>
    
    <text x="307.35513" y="420.99319">cos <tspan style="font-style:italic;">φ</tspan></text>
    <text x="315.31839" y="374.06613"><tspan style="font-style:italic;">φ</tspan></text>
    
    <text x="410.45679" y="280.91873">sin <tspan style="font-style:italic;">φ</tspan></text>
    <path d="M 401.47061,132.97005 L 401.47061,385.41608" style="fill:none;stroke:#FF0000;stroke-width:2;stroke-linecap:butt;stroke-linejoin:miter;stroke-miterlimit:4;" id="path3249"/>
    
    <!-- vector dimension arc -->
    <path d="M 542.90546,325.0796 A 33.388023,31.148582 0 0 1 563.52346,354.1268" transform="matrix(1.656472,0,0,1.656472,-582.1431,-202.5758)" style="color:#000000;fill:none;stroke:#FF0000;stroke-width:1;stroke-linecap:square;stroke-linejoin:miter;marker:none;marker-start:none;marker-mid:none;marker-end:none;stroke-miterlimit:4;stroke-dasharray:none;stroke-dashoffset:0;stroke-visibility:visible;display:inline;overflow:visible" id="path3251"/>
    
    <!-- vector arrowhead -->
    <path d="M 401.43775,133.35807 L 396.96733,163.25513 L 382.92787,157.14936 L 401.43775,133.35807 z " style="fill:#000000;stroke:#000000;stroke-width:1px;stroke-linecap:butt;stroke-linejoin:miter;stroke-display:inline" id="path4126"/>
   
    <text x="390" y="116.70425">e<tspan dy="-17" font-size="28"><tspan font-style="italic">iφ</tspan></tspan>
      <tspan dy="17">= cos <tspan font-style="italic">φ</tspan> + <tspan font-style="italic">i</tspan> sin <tspan font-style="italic">φ</tspan></tspan></text>
  </g>
</svg>